# xmcd
#
# Track frame offsets:
#	150
#	27056
#	43485
#	59565
#	75405
#	94372
#	107842
#	132352
#	150405
#	168135
#	189540
#	204510
#
# Disc length: 2921 seconds
#
# Revision: 1
# Processed by: cddbd v1.5.1PL0 Copyright (c) Steve Scherf et al.
# Submitted via: CDex 1.50Beta5
#
DISCID=9c0b670c
DTITLE=THE MAD PACHI-SLOT BROTHERS - SLOT-ISM
DYEAR=1900
DGENRE=Rock
TTITLE0=THE MAD PACHI-SLOT BROTHERS/HAZAR
TTITLE1=THE MAD PACHI-SLOT BROTHERS/SLOT-ISM
TTITLE2=ED WOODS/ASTRO LINER
TTITLE3=FILTHY/Searchin 'For Life /remix
TTITLE4=caramel/橙
TTITLE5=y.k. united/Thousand and one night
TTITLE6=Jill's Project with ANI-Katsu/Nobody notices
TTITLE7=MINOR LEAGUE/JOKER
TTITLE8=MONKEY PIRATES/バブリーファイター
TTITLE9=ゆ〜こときカズ/BxBxKING
TTITLE10=U1/MAXIMUM RED
TTITLE11=THE MAD PACHI-SLOT BROTHERS/psycho slot
EXTD=
EXTT0=
EXTT1=
EXTT2=
EXTT3=
EXTT4=
EXTT5=
EXTT6=
EXTT7=
EXTT8=
EXTT9=
EXTT10=
EXTT11=
PLAYORDER=
